<?xml version="1.0" encoding="UTF-8" standalone="no"?>
<!-- Created with Inkscape (http://www.inkscape.org/) -->

<svg
   xmlns:dc="http://purl.org/dc/elements/1.1/"
   xmlns:cc="http://creativecommons.org/ns#"
   xmlns:rdf="http://www.w3.org/1999/02/22-rdf-syntax-ns#"
   xmlns:svg="http://www.w3.org/2000/svg"
   xmlns="http://www.w3.org/2000/svg"
   xmlns:sodipodi="http://sodipodi.sourceforge.net/DTD/sodipodi-0.dtd"
   xmlns:inkscape="http://www.inkscape.org/namespaces/inkscape"
   width="210mm"
   height="297mm"
   viewBox="0 0 210 297"
   version="1.1"
   id="svg8"
   inkscape:version="0.92.4 (5da689c313, 2019-01-14)"
   sodipodi:docname="Logo Antonio Nextu.svg">
  <defs
     id="defs2" />
  <sodipodi:namedview
     id="base"
     pagecolor="#ffffff"
     bordercolor="#666666"
     borderopacity="1.0"
     inkscape:pageopacity="0.0"
     inkscape:pageshadow="2"
     inkscape:zoom="0.3651046"
     inkscape:cx="600.47176"
     inkscape:cy="593.60409"
     inkscape:document-units="mm"
     inkscape:current-layer="layer1"
     showgrid="false"
     inkscape:window-width="1360"
     inkscape:window-height="705"
     inkscape:window-x="1358"
     inkscape:window-y="-8"
     inkscape:window-maximized="1"
     showguides="true"
     inkscape:guide-bbox="true"
     inkscape:snap-global="false">
    <sodipodi:guide
       position="-354.54166,192.01191"
       orientation="1,0"
       id="guide3755"
       inkscape:locked="false" />
  </sodipodi:namedview>
  <metadata
     id="metadata5">
    <rdf:RDF>
      <cc:Work
         rdf:about="">
        <dc:format>image/svg+xml</dc:format>
        <dc:type
           rdf:resource="http://purl.org/dc/dcmitype/StillImage" />
        <dc:title />
      </cc:Work>
    </rdf:RDF>
  </metadata>
  <g
     inkscape:label="Layer 1"
     inkscape:groupmode="layer"
     id="layer1">
    <path
       style="fill:#000000;stroke-width:0.98837227"
       d="m 94.429159,194.67024 c -3.6964,-14.97133 -7.754184,-31.42921 -9.01729,-36.57309 C 82.751521,147.2633 83.292657,147.68244 70.417434,146.48269 45.539246,144.1645 28.981903,164.37611 17.651691,210.894 c -2.600964,10.67864 -2.928322,8.25743 -1.095197,-8.10024 1.566683,-13.97996 4.586075,-27.95113 7.632047,-35.31456 1.323931,-3.20053 2.28321,-6.00922 2.131714,-6.24145 -0.508259,-0.77923 -7.264019,6.65444 -10.73671,11.81402 -3.977044,5.90893 -4.265074,5.3811 -1.328876,-2.43512 2.492387,-6.63483 6.350615,-14.19858 11.759381,-23.0535 2.158452,-3.53365 3.674922,-6.42484 3.369914,-6.42484 -2.082856,0 -15.167266,13.24348 -22.4770129,22.75028 l -5.0633285,6.58516 1.4257446,-5.18339 c 2.778891,-10.10281 16.8967328,-25.0172 29.6305538,-31.30238 7.452265,-3.67828 12.748325,-5.3469 11.049427,-3.48128 -8.669963,9.52073 -11.02059,12.30753 -10.741779,12.73497 0.180972,0.27747 2.482887,-1.16241 5.115392,-3.19971 10.523727,-8.14434 21.974929,-14.73302 33.291852,-19.15508 l 7.184205,-2.80724 -5.823565,-0.0967 c -5.072459,-0.0839 -6.076299,-0.4841 -7.782895,-3.10047 -1.077632,-1.6521 -1.959336,-4.34579 -1.959336,-5.98597 0,-2.95223 0.0981,-2.91385 9.77852,3.82436 8.281269,5.76433 10.664619,6.88874 15.565777,7.34353 3.290751,0.30539 5.787289,0.0464 5.787289,-0.60232 0,-1.97353 -11.739069,-11.53432 -18.581318,-15.13344 -10.14596,-5.336842 -22.429622,-7.664872 -25.322187,-4.799034 -0.832621,0.824914 0.747878,1.227794 5.188605,1.322504 3.512276,0.0749 8.181998,0.88826 10.377171,1.80737 2.195174,0.91912 2.9136,1.42747 1.596491,1.12967 -12.612326,-2.85175 -21.43284,-1.70808 -30.732434,3.98478 -5.155721,3.15615 -13.107875,10.00531 -12.571421,10.82774 0.154262,0.23652 2.776513,-0.86095 5.827257,-2.43871 3.050744,-1.57777 7.163237,-3.21667 9.138903,-3.64202 3.342316,-0.71954 3.22155,-0.57082 -1.736563,2.13969 -9.279222,5.07274 -20.617856,16.13331 -26.800692,26.14346 -2.1244736,3.43955 -2.1901206,3.09606 -0.574624,-3.00649 0.809691,-3.05858 2.692006,-6.23167 5.58392,-9.41291 2.399384,-2.63944 4.242849,-4.9824 4.096606,-5.20659 -0.146246,-0.2242 -1.420107,0.20922 -2.830809,0.96314 -1.410717,0.75399 -2.727625,1.12135 -2.926477,0.81653 -0.198843,-0.30486 0.10788,-2.63285 0.681525,-5.1733 1.177327,-5.21343 3.200094,-6.84456 19.318531,-15.57821 l 8.780684,-4.757727 -6.385958,0.732127 c -3.512282,0.40273 -8.676699,1.26875 -11.4765,1.92458 -2.799803,0.65585 -5.246243,0.95376 -5.436528,0.66209 -0.19032,-0.29174 2.779553,-12.842055 6.59968,-27.889504 C 33.883846,44.527212 43.020773,8.626806 44.12079,4.3804337 44.825376,1.6605015 45.018253,1.6269198 59.935868,1.6269198 H 75.037667 L 103.46,110.51071 c 15.63226,59.88608 28.42231,109.44931 28.42231,110.14056 0,0.81661 -5.38158,1.25376 -15.36622,1.24815 l -15.36621,-0.009 -6.720721,-27.2206 z m 9.139711,-47.03321 c -0.59805,-4.88767 -5.123458,-12.95951 -10.927778,-19.49163 l -3.877242,-4.36342 -7.828994,1.30575 c -7.047132,1.17535 -19.120153,5.71731 -18.347174,6.90235 0.16888,0.25891 2.645661,-0.0375 5.504037,-0.65772 3.037718,-0.6595 6.175958,-0.6802 7.553041,-0.0491 2.303386,1.05461 2.284684,1.08103 -0.836961,1.18292 -1.756147,0.0571 -6.246298,1.0624 -9.978081,2.23347 l -6.785089,2.12924 9.206209,0.84284 c 5.063449,0.46358 11.614482,1.69913 14.557867,2.74565 7.428798,2.6413 17.551268,8.80022 19.830935,12.06597 2.21724,3.1763 2.74782,1.84365 1.92923,-4.84583 z M 69.963345,95.552343 C 69.654421,94.03792 67.238416,84.074361 64.594431,73.411124 61.232163,59.851061 59.586041,54.574402 59.118041,55.85648 58.75,56.864665 56.685422,65.038431 54.530027,74.020399 c -2.155396,8.981988 -4.170645,17.294593 -4.478339,18.472477 -0.492554,1.885634 -5.56e-4,2.157437 4.115887,2.273725 2.571418,0.07316 7.010173,0.819646 9.863899,1.660018 2.853718,0.840345 5.482203,1.606979 5.841071,1.703575 0.358832,0.09672 0.399724,-1.063408 0.09091,-2.577851 z"
       id="path21509"
       inkscape:connector-curvature="0" />
    <flowRoot
       xml:space="preserve"
       id="flowRoot3757"
       style="font-style:normal;font-weight:normal;font-size:40px;line-height:1.25;font-family:sans-serif;letter-spacing:0px;word-spacing:0px;fill:#000000;fill-opacity:1;stroke:none"
       transform="translate(-16.974827,6.3655602)"><flowRegion
         id="flowRegion3759"><rect
           id="rect3761"
           width="251.42857"
           height="511.42856"
           x="325.71429"
           y="119.66254" /></flowRegion><flowPara
         id="flowPara3763" /></flowRoot>    <path
       style="fill:#4d4d4d;stroke-width:0.72932124"
       d="m 130.29809,281.22297 c -10.66291,-2.47119 -19.1261,-11.50931 -22.6091,-24.14502 -1.51133,-5.48292 -1.61539,-6.63253 -1.599,-17.66616 0.015,-10.55813 0.17182,-12.4114 1.48232,-17.5889 3.2109,-12.68613 10.46947,-26.20702 17.385,-32.38394 l 3.46807,-3.09767 -0.19039,-9.78965 c -0.26016,-13.37541 -0.51627,-13.79262 -8.81806,-14.36583 -7.64023,-0.52747 -10.01897,0.5552 -11.14542,5.07317 -0.4348,1.74392 -0.79055,4.03412 -0.79055,5.08934 0,1.05522 -0.25354,1.91858 -0.56341,1.91858 -0.70522,0 -0.73718,-21.68258 -0.0394,-26.7201 0.68244,-4.92687 2.71928,-9.62419 5.17686,-11.93888 1.77371,-1.67058 3.04063,-1.93857 9.16471,-1.93857 h 7.10647 v -14.16193 -14.16193 h -7.66141 c -9.09463,0 -10.90217,-0.98914 -12.74579,-6.974861 -1.0408,-3.379118 -1.22939,-5.949073 -1.45429,-19.816754 -0.21515,-13.269274 -0.12817,-15.862731 0.51971,-15.507214 0.42798,0.23484 1.06369,1.875516 1.41269,3.64603 0.40972,2.078455 1.1084,3.441804 1.97184,3.847523 0.73552,0.345605 8.63623,0.670768 17.55713,0.722497 15.1526,0.08797 16.36805,0.220878 18.47301,2.020451 3.91417,3.346358 4.45803,5.960566 4.46045,21.440847 0.001,7.399611 0.11708,13.453831 0.25773,13.453831 0.14049,0 8.00652,-9.159523 17.47979,-20.354514 13.26994,-15.681624 17.48639,-20.21503 18.36636,-19.746996 1.77627,0.944771 8.11843,11.334092 10.13716,16.606072 5.62067,14.67845 6.50338,33.952488 2.22519,48.586328 -3.22422,11.02874 -11.80488,21.45184 -20.77516,25.23613 l -3.01557,1.27218 5.1175,1.05589 c 5.62506,1.16065 9.63545,3.67609 12.09083,7.58375 3.10919,4.94818 3.40843,6.91373 3.76977,24.76137 0.27761,13.7115 0.52233,17.18267 1.42658,20.23371 1.7926,6.04868 2.42636,6.1569 6.80678,1.16219 2.83175,-3.22886 4.20045,-4.25203 5.12986,-3.83484 0.69719,0.3129 1.26763,0.91633 1.26763,1.34081 0,0.42449 -5.09466,7.64763 -11.32145,16.05144 -10.25175,13.836 -11.43613,15.17658 -12.53536,14.18871 -0.66763,-0.60008 -4.12941,-5.00827 -7.69284,-9.79614 l -6.47894,-8.70521 0.2057,-25.11219 c 0.18183,-22.18746 0.0936,-25.508 -0.75661,-28.51069 -1.15134,-4.06592 -4.43369,-7.05088 -8.68016,-7.8937 l -2.88178,-0.57197 v 23.26266 c 0,12.79448 0.12899,23.26267 0.28656,23.26267 0.15757,0 1.33652,-1.27456 2.61977,-2.83238 2.48561,-3.01741 4.46182,-3.60227 5.44741,-1.61215 0.46899,0.94695 -2.95145,5.41296 -15.27057,19.93876 -8.73119,10.29515 -16.13415,18.88368 -16.45101,19.08562 -0.31688,0.20199 -1.26721,-1.6986 -2.1119,-4.22341 -5.38458,-16.09479 -16.02923,-22.00096 -21.7683,-12.07812 -5.46692,9.45229 -2.24259,26.02601 6.51796,33.50374 7.91114,6.75272 23.43058,7.67698 32.57999,1.9403 6.59901,-4.13761 10.10542,-10.19476 11.56012,-19.96974 1.04456,-7.01872 1.87186,-5.56555 1.50163,2.63761 -0.82179,18.20952 -9.00729,31.89563 -21.44029,35.84806 -4.13063,1.31313 -10.28934,1.62989 -14.17596,0.72919 z m 27.88762,-121.58494 v -51.44988 l -3.662,4.41473 -3.66201,4.41475 v 35.56146 35.56146 l -6.61982,0.58135 c -7.3156,0.64245 -12.27459,2.46905 -15.3199,5.64312 l -2.00422,2.08892 5.35217,0.70464 c 9.79012,1.28905 19.37314,6.01662 23.38055,11.53426 0.92958,1.27992 1.88029,2.3424 2.11269,2.36107 0.23247,0.0178 0.4226,-23.11849 0.4226,-51.41592 z m 12.3945,-4.01916 c 1.34985,-1.13004 2.40489,-3.1152 3.34467,-6.29332 1.20506,-4.07525 1.40356,-6.25601 1.62426,-17.84571 0.41967,-22.03351 -1.1192,-30.3562 -6.07255,-32.84319 -2.0421,-1.025322 -2.30129,-0.898935 -5.28926,2.5793 l -3.14192,3.65746 -0.0213,26.19958 -0.0212,26.19958 3.80284,-0.001 c 2.49153,-9.5e-4 4.48282,-0.57073 5.77472,-1.65222 z"
       id="path21565"
       inkscape:connector-curvature="0" />
    <path
       style="fill:#d4aa00;stroke:#ececec;stroke-width:0.66032499"
       d="m 101.67157,152.48759 c -2.211182,-2.64397 -8.461025,-6.99242 -14.207584,-9.88524 -5.663872,-2.85118 -12.486081,-4.58408 -20.945347,-5.3203 -3.273037,-0.28487 -5.861694,-0.64531 -5.752568,-0.801 0.352579,-0.5031 9.946605,-3.25278 13.286626,-3.80803 2.359777,-0.39229 3.075858,-0.77512 2.632648,-1.40756 -0.668711,-0.9542 -5.96379,-1.12673 -10.296395,-0.33546 -2.691004,0.49141 -2.720179,0.47535 -1.105574,-0.60829 2.507279,-1.68283 10.581185,-4.26294 17.252177,-5.51313 l 5.953049,-1.11564 2.917495,3.21175 c 3.719434,4.09458 8.546876,11.52513 10.367413,15.95787 1.26425,3.07827 2.56138,11.49352 1.77162,11.49352 -0.17107,0 -1.01414,-0.84079 -1.87356,-1.86842 z"
       id="path21576"
       inkscape:connector-curvature="0" />
    <path
       style="fill:#004455;stroke:#37483e;stroke-width:0.66032499"
       d="m 123.40261,270.67263 c -8.67374,-3.14231 -15.88549,-11.14894 -19.29548,-21.42223 -1.74458,-5.25589 -1.79118,-5.67911 -1.96348,-17.83332 -0.17338,-12.2295 -0.0163,-13.95849 1.96524,-21.63071 0.1752,-0.67832 -0.99879,-1.02909 -4.08822,-1.22164 l -4.333982,-0.27006 4.423252,-0.15871 4.42325,-0.15872 1.38102,-3.74454 c 1.90375,-5.1619 7.22574,-15.13099 9.95799,-18.65322 1.24595,-1.60621 3.65183,-4.18593 5.3464,-5.7327 l 3.08105,-2.81233 -0.26242,-9.72046 c -0.38316,-14.19267 -0.88289,-14.85477 -11.21412,-14.85813 -3.57931,-8e-4 -5.4623,0.36686 -6.71172,1.31169 -1.71617,1.29786 -2.94443,4.59085 -2.97887,7.98641 -0.0163,1.59544 -0.0394,1.60096 -0.63061,0.14828 -0.41179,-1.01218 -0.51665,-5.21178 -0.31863,-12.75991 0.25629,-9.76915 0.47613,-11.81532 1.66941,-15.53442 0.81992,-2.55554 2.1981,-5.17993 3.41667,-6.50617 1.95516,-2.12792 2.35955,-2.23825 9.46418,-2.58207 l 7.42175,-0.3592 V 109.72773 95.294977 l -8.25347,-0.254004 c -9.51996,-0.292993 -10.68863,-0.964717 -12.28153,-7.059037 -1.14805,-4.392342 -2.1058,-33.028498 -1.10466,-33.028498 0.34039,0 0.96998,1.199001 1.39908,2.664445 0.42911,1.465445 1.11652,2.973994 1.52759,3.352326 0.41104,0.378329 8.3344,0.87026 17.60741,1.093176 16.45132,0.395477 16.91059,0.4499 18.94637,2.245301 3.50723,3.093116 3.8886,4.999513 4.16403,20.815682 0.13411,7.700488 0.35633,14.000885 0.49388,14.000885 0.13756,0 5.64147,-6.329392 12.23094,-14.065308 12.44761,-14.613227 22.64112,-26.162597 23.09121,-26.162597 0.9387,0 3.48694,3.412355 6.40921,8.582542 6.02161,10.653677 8.74473,21.926923 8.72971,36.13937 -0.01,9.17023 -1.06273,16.19274 -3.34392,22.29988 -3.655,9.78504 -10.61978,18.08408 -18.56952,22.12689 -4.71156,2.39606 -4.65189,2.56137 1.39987,3.87746 8.07577,1.75627 13.32669,7.36159 14.36582,15.33544 0.28956,2.22195 0.76619,10.97519 1.0592,19.45161 0.45869,13.27062 0.69772,15.87324 1.72037,18.73359 1.53525,4.29408 2.53194,4.26138 6.9406,-0.22768 3.53883,-3.60334 5.28034,-4.41926 5.28034,-2.47397 0,1.24268 -19.58035,27.88581 -21.37087,29.07952 -1.51768,1.01182 -1.93329,0.59599 -9.62456,-9.62817 l -6.05828,-8.05344 0.064,-25.84211 c 0.068,-27.42 -0.0121,-28.37045 -2.63648,-31.76092 -1.45641,-1.88072 -4.40306,-3.52469 -7.499,-4.18383 l -2.62573,-0.55904 0.055,21.97827 c 0.03,12.08806 0.2169,22.77024 0.4146,23.7382 0.35433,1.73454 0.39447,1.72033 2.78662,-0.98599 2.27021,-2.56837 5.03548,-3.67219 5.03548,-2.01003 0,1.68008 -29.87638,37.88009 -31.28283,37.90414 -0.3317,0.004 -1.30153,-1.85315 -2.15513,-4.13076 -5.72694,-15.2809 -15.35875,-20.83154 -21.24379,-12.2424 -6.5936,9.62328 -2.82912,28.49877 7.11821,35.69144 7.39101,5.34424 19.81333,6.33959 29.24437,2.34319 3.66904,-1.55474 8.96742,-6.71842 10.83101,-10.55564 0.83508,-1.71945 2.09504,-5.71798 2.79992,-8.88564 l 1.28162,-5.75939 0.0451,4.74976 c 0.0244,2.61239 -0.41041,7.09288 -0.96691,9.9567 -2.43129,12.51125 -8.08205,20.99213 -17.13134,25.7115 -4.75817,2.48147 -14.67579,3.1755 -19.64621,1.37479 z m 30.31587,-72.35807 c 0.18326,-1.84378 0.26072,-25.10715 0.17207,-51.69637 l -0.16114,-48.344041 -3.5931,4.339341 -3.59312,4.33934 -0.27636,35.72249 -0.27642,35.72248 -5.75925,0.54478 c -6.3492,0.6006 -10.36897,1.73218 -13.31193,3.74733 -2.56567,1.75683 -4.4223,3.46624 -4.4223,4.07165 0,0.26998 2.58275,0.9056 5.73943,1.41244 9.69552,1.55675 19.75025,6.57293 22.96368,11.45629 0.73709,1.12011 1.53028,2.03656 1.76269,2.03656 0.23241,0 0.57248,-1.50855 0.7558,-3.35234 z m 11.54439,-51.37247 c 4.65316,-2.77423 5.88499,-8.60452 5.93415,-28.08651 0.0506,-20.075092 -1.05068,-26.299064 -5.18623,-29.309579 -2.58931,-1.88492 -3.52492,-1.504663 -7.37548,2.997595 l -2.41838,2.827706 v 26.329188 26.3292 h 3.61088 c 1.98599,0 4.43176,-0.48945 5.43506,-1.0876 z"
       id="path21578"
       inkscape:connector-curvature="0" />
  </g>
</svg>
